<svg width="2670" height="765" viewBox="0 0 2670 765" fill="none" xmlns="http://www.w3.org/2000/svg">
<path fill-rule="evenodd" clip-rule="evenodd" d="M75.0105 647.593C75.0105 631.376 61.5836 618.241 45.0063 618.241C20.1478 618.241 0 598.531 0 574.213H15.0021C15.0021 590.43 28.429 603.565 45.0063 603.565C69.8648 603.565 90.0126 623.275 90.0126 647.593C90.0126 663.81 103.44 676.945 120.017 676.945C144.875 676.945 165.023 696.654 165.023 720.972C165.023 737.189 178.45 750.324 195.027 750.324V765C170.169 765 150.021 745.29 150.021 720.972C150.021 704.755 136.594 691.62 120.017 691.62C95.1584 691.62 75.0105 671.911 75.0105 647.593ZM266.017 633.284L329.671 695.554L319.065 705.929L255.411 643.66L266.017 633.284Z" fill="#063702"/>
<path fill-rule="evenodd" clip-rule="evenodd" d="M855.12 647.593C855.12 631.376 841.693 618.241 825.116 618.241C800.257 618.241 780.109 598.531 780.109 574.213H795.112C795.112 590.43 808.538 603.565 825.116 603.565C849.974 603.565 870.122 623.275 870.122 647.593C870.122 663.81 883.549 676.945 900.126 676.945C924.985 676.945 945.133 696.654 945.133 720.972C945.133 737.189 958.56 750.324 975.137 750.324V765C950.278 765 930.131 745.29 930.131 720.972C930.131 704.755 916.704 691.62 900.126 691.62C875.268 691.62 855.12 671.911 855.12 647.593ZM1046.13 633.284L1109.78 695.554L1099.17 705.929L1035.52 643.66L1046.13 633.284Z" fill="#063702"/>
<path fill-rule="evenodd" clip-rule="evenodd" d="M1635.23 647.593C1635.23 631.376 1621.8 618.241 1605.23 618.241C1580.37 618.241 1560.22 598.531 1560.22 574.213H1575.22C1575.22 590.43 1588.65 603.565 1605.23 603.565C1630.08 603.565 1650.23 623.275 1650.23 647.593C1650.23 663.81 1663.66 676.945 1680.24 676.945C1705.09 676.945 1725.24 696.654 1725.24 720.972C1725.24 737.189 1738.67 750.324 1755.25 750.324V765C1730.39 765 1710.24 745.29 1710.24 720.972C1710.24 704.755 1696.81 691.62 1680.24 691.62C1655.38 691.62 1635.23 671.911 1635.23 647.593ZM1826.24 633.284L1889.89 695.554L1879.28 705.929L1815.63 643.66L1826.24 633.284Z" fill="#063702"/>
<path fill-rule="evenodd" clip-rule="evenodd" d="M465.065 647.593C465.065 631.376 451.638 618.241 435.061 618.241C410.202 618.241 390.055 598.531 390.055 574.213H405.057C405.057 590.43 418.484 603.565 435.061 603.565C459.919 603.565 480.067 623.275 480.067 647.593C480.067 663.81 493.494 676.945 510.071 676.945C534.93 676.945 555.078 696.654 555.078 720.972C555.078 737.189 568.505 750.324 585.082 750.324V765C560.224 765 540.076 745.29 540.076 720.972C540.076 704.755 526.649 691.62 510.071 691.62C485.213 691.62 465.065 671.911 465.065 647.593ZM656.072 633.284L719.726 695.554L709.119 705.929L645.466 643.66L656.072 633.284Z" fill="#063702"/>
<path fill-rule="evenodd" clip-rule="evenodd" d="M1245.17 647.593C1245.17 631.376 1231.75 618.241 1215.17 618.241C1190.31 618.241 1170.16 598.531 1170.16 574.213H1185.17C1185.17 590.43 1198.59 603.565 1215.17 603.565C1240.03 603.565 1260.18 623.275 1260.18 647.593C1260.18 663.81 1273.6 676.945 1290.18 676.945C1315.04 676.945 1335.19 696.654 1335.19 720.972C1335.19 737.189 1348.61 750.324 1365.19 750.324V765C1340.33 765 1320.19 745.29 1320.19 720.972C1320.19 704.755 1306.76 691.62 1290.18 691.62C1265.32 691.62 1245.17 671.911 1245.17 647.593ZM1436.18 633.284L1499.84 695.554L1489.23 705.929L1425.57 643.66L1436.18 633.284Z" fill="#063702"/>
<path fill-rule="evenodd" clip-rule="evenodd" d="M2025.28 647.593C2025.28 631.376 2011.86 618.241 1995.28 618.241C1970.42 618.241 1950.27 598.531 1950.27 574.213H1965.28C1965.28 590.43 1978.7 603.565 1995.28 603.565C2020.14 603.565 2040.29 623.275 2040.29 647.593C2040.29 663.81 2053.71 676.945 2070.29 676.945C2095.15 676.945 2115.3 696.654 2115.3 720.972C2115.3 737.189 2128.72 750.324 2145.3 750.324V765C2120.44 765 2100.29 745.29 2100.29 720.972C2100.29 704.755 2086.87 691.62 2070.29 691.62C2045.43 691.62 2025.28 671.911 2025.28 647.593ZM2216.29 633.284L2279.95 695.554L2269.34 705.929L2205.68 643.66L2216.29 633.284Z" fill="#063702"/>
<path fill-rule="evenodd" clip-rule="evenodd" d="M2415.34 647.593C2415.34 631.376 2401.91 618.241 2385.33 618.241C2360.48 618.241 2340.33 598.531 2340.33 574.213H2355.33C2355.33 590.43 2368.76 603.565 2385.33 603.565C2410.19 603.565 2430.34 623.275 2430.34 647.593C2430.34 663.81 2443.77 676.945 2460.35 676.945C2485.2 676.945 2505.35 696.654 2505.35 720.972C2505.35 737.189 2518.78 750.324 2535.36 750.324V765C2510.5 765 2490.35 745.29 2490.35 720.972C2490.35 704.755 2476.92 691.62 2460.35 691.62C2435.49 691.62 2415.34 671.911 2415.34 647.593ZM2606.35 633.284L2670 695.554L2659.39 705.929L2595.74 643.66L2606.35 633.284Z" fill="#063702"/>
<path fill-rule="evenodd" clip-rule="evenodd" d="M465.065 456.806C465.065 440.589 451.638 427.454 435.061 427.454C410.202 427.454 390.055 407.744 390.055 383.426H405.057C405.057 399.643 418.484 412.778 435.061 412.778C459.919 412.778 480.067 432.488 480.067 456.806C480.067 473.023 493.494 486.158 510.071 486.158C534.93 486.158 555.078 505.867 555.078 530.185C555.078 546.402 568.505 559.537 585.082 559.537V574.213C560.224 574.213 540.076 554.503 540.076 530.185C540.076 513.968 526.649 500.833 510.071 500.833C485.213 500.833 465.065 481.124 465.065 456.806ZM656.072 442.497L719.726 504.767L709.119 515.143L645.466 452.873L656.072 442.497Z" fill="#063702"/>
<path fill-rule="evenodd" clip-rule="evenodd" d="M1245.17 456.806C1245.17 440.589 1231.75 427.454 1215.17 427.454C1190.31 427.454 1170.16 407.744 1170.16 383.426H1185.17C1185.17 399.643 1198.59 412.778 1215.17 412.778C1240.03 412.778 1260.18 432.488 1260.18 456.806C1260.18 473.023 1273.6 486.158 1290.18 486.158C1315.04 486.158 1335.19 505.867 1335.19 530.185C1335.19 546.402 1348.61 559.537 1365.19 559.537V574.213C1340.33 574.213 1320.19 554.503 1320.19 530.185C1320.19 513.968 1306.76 500.833 1290.18 500.833C1265.32 500.833 1245.17 481.124 1245.17 456.806ZM1436.18 442.497L1499.84 504.767L1489.23 515.143L1425.57 452.873L1436.18 442.497Z" fill="#063702"/>
<path fill-rule="evenodd" clip-rule="evenodd" d="M2025.28 456.806C2025.28 440.589 2011.86 427.454 1995.28 427.454C1970.42 427.454 1950.27 407.744 1950.27 383.426H1965.28C1965.28 399.643 1978.7 412.778 1995.28 412.778C2020.14 412.778 2040.29 432.488 2040.29 456.806C2040.29 473.023 2053.71 486.158 2070.29 486.158C2095.15 486.158 2115.3 505.867 2115.3 530.185C2115.3 546.402 2128.72 559.537 2145.3 559.537V574.213C2120.44 574.213 2100.29 554.503 2100.29 530.185C2100.29 513.968 2086.87 500.833 2070.29 500.833C2045.43 500.833 2025.28 481.124 2025.28 456.806ZM2216.29 442.497L2279.95 504.767L2269.34 515.143L2205.68 452.873L2216.29 442.497Z" fill="#063702"/>
<path fill-rule="evenodd" clip-rule="evenodd" d="M2415.34 456.806C2415.34 440.589 2401.91 427.454 2385.33 427.454C2360.48 427.454 2340.33 407.744 2340.33 383.426H2355.33C2355.33 399.643 2368.76 412.778 2385.33 412.778C2410.19 412.778 2430.34 432.488 2430.34 456.806C2430.34 473.023 2443.77 486.158 2460.35 486.158C2485.2 486.158 2505.35 505.867 2505.35 530.185C2505.35 546.402 2518.78 559.537 2535.36 559.537V574.213C2510.5 574.213 2490.35 554.503 2490.35 530.185C2490.35 513.968 2476.92 500.833 2460.35 500.833C2435.49 500.833 2415.34 481.124 2415.34 456.806ZM2606.35 442.497L2670 504.767L2659.39 515.143L2595.74 452.873L2606.35 442.497Z" fill="#063702"/>
<path fill-rule="evenodd" clip-rule="evenodd" d="M75.0105 456.806C75.0105 440.589 61.5836 427.454 45.0063 427.454C20.1478 427.454 0 407.744 0 383.426H15.0021C15.0021 399.643 28.429 412.778 45.0063 412.778C69.8648 412.778 90.0126 432.488 90.0126 456.806C90.0126 473.023 103.44 486.158 120.017 486.158C144.875 486.158 165.023 505.867 165.023 530.185C165.023 546.402 178.45 559.537 195.027 559.537V574.213C170.169 574.213 150.021 554.503 150.021 530.185C150.021 513.968 136.594 500.833 120.017 500.833C95.1584 500.833 75.0105 481.124 75.0105 456.806ZM266.017 442.497L329.671 504.767L319.065 515.143L255.411 452.873L266.017 442.497Z" fill="#063702"/>
<path fill-rule="evenodd" clip-rule="evenodd" d="M855.12 456.806C855.12 440.589 841.693 427.454 825.116 427.454C800.257 427.454 780.109 407.744 780.109 383.426H795.112C795.112 399.643 808.538 412.778 825.116 412.778C849.974 412.778 870.122 432.488 870.122 456.806C870.122 473.023 883.549 486.158 900.126 486.158C924.985 486.158 945.133 505.867 945.133 530.185C945.133 546.402 958.56 559.537 975.137 559.537V574.213C950.278 574.213 930.131 554.503 930.131 530.185C930.131 513.968 916.704 500.833 900.126 500.833C875.268 500.833 855.12 481.124 855.12 456.806ZM1046.13 442.497L1109.78 504.767L1099.17 515.143L1035.52 452.873L1046.13 442.497Z" fill="#063702"/>
<path fill-rule="evenodd" clip-rule="evenodd" d="M1635.23 456.806C1635.23 440.589 1621.8 427.454 1605.23 427.454C1580.37 427.454 1560.22 407.744 1560.22 383.426H1575.22C1575.22 399.643 1588.65 412.778 1605.23 412.778C1630.08 412.778 1650.23 432.488 1650.23 456.806C1650.23 473.023 1663.66 486.158 1680.24 486.158C1705.09 486.158 1725.24 505.867 1725.24 530.185C1725.24 546.402 1738.67 559.537 1755.25 559.537V574.213C1730.39 574.213 1710.24 554.503 1710.24 530.185C1710.24 513.968 1696.81 500.833 1680.24 500.833C1655.38 500.833 1635.23 481.124 1635.23 456.806ZM1826.24 442.497L1889.89 504.767L1879.28 515.143L1815.63 452.873L1826.24 442.497Z" fill="#063702"/>
<path fill-rule="evenodd" clip-rule="evenodd" d="M75.0105 264.167C75.0105 247.95 61.5836 234.815 45.0063 234.815C20.1478 234.815 0 215.105 0 190.787H15.0021C15.0021 207.004 28.429 220.139 45.0063 220.139C69.8648 220.139 90.0126 239.849 90.0126 264.167C90.0126 280.383 103.44 293.518 120.017 293.518C144.875 293.518 165.023 313.228 165.023 337.546C165.023 353.763 178.45 366.898 195.027 366.898V381.574C170.169 381.574 150.021 361.864 150.021 337.546C150.021 321.329 136.594 308.194 120.017 308.194C95.1584 308.194 75.0105 288.485 75.0105 264.167ZM266.017 249.857L329.671 312.127L319.065 322.503L255.411 260.233L266.017 249.857Z" fill="#063702"/>
<path fill-rule="evenodd" clip-rule="evenodd" d="M855.12 264.167C855.12 247.95 841.693 234.815 825.116 234.815C800.257 234.815 780.109 215.105 780.109 190.787H795.112C795.112 207.004 808.538 220.139 825.116 220.139C849.974 220.139 870.122 239.849 870.122 264.167C870.122 280.383 883.549 293.518 900.126 293.518C924.985 293.518 945.133 313.228 945.133 337.546C945.133 353.763 958.56 366.898 975.137 366.898V381.574C950.278 381.574 930.131 361.864 930.131 337.546C930.131 321.329 916.704 308.194 900.126 308.194C875.268 308.194 855.12 288.485 855.12 264.167ZM1046.13 249.857L1109.78 312.127L1099.17 322.503L1035.52 260.233L1046.13 249.857Z" fill="#063702"/>
<path fill-rule="evenodd" clip-rule="evenodd" d="M1635.23 264.167C1635.23 247.95 1621.8 234.815 1605.23 234.815C1580.37 234.815 1560.22 215.105 1560.22 190.787H1575.22C1575.22 207.004 1588.65 220.139 1605.23 220.139C1630.08 220.139 1650.23 239.849 1650.23 264.167C1650.23 280.383 1663.66 293.518 1680.24 293.518C1705.09 293.518 1725.24 313.228 1725.24 337.546C1725.24 353.763 1738.67 366.898 1755.25 366.898V381.574C1730.39 381.574 1710.24 361.864 1710.24 337.546C1710.24 321.329 1696.81 308.194 1680.24 308.194C1655.38 308.194 1635.23 288.485 1635.23 264.167ZM1826.24 249.857L1889.89 312.127L1879.28 322.503L1815.63 260.233L1826.24 249.857Z" fill="#063702"/>
<path fill-rule="evenodd" clip-rule="evenodd" d="M465.065 264.167C465.065 247.95 451.638 234.815 435.061 234.815C410.202 234.815 390.055 215.105 390.055 190.787H405.057C405.057 207.004 418.484 220.139 435.061 220.139C459.919 220.139 480.067 239.849 480.067 264.167C480.067 280.383 493.494 293.518 510.071 293.518C534.93 293.518 555.078 313.228 555.078 337.546C555.078 353.763 568.505 366.898 585.082 366.898V381.574C560.224 381.574 540.076 361.864 540.076 337.546C540.076 321.329 526.649 308.194 510.071 308.194C485.213 308.194 465.065 288.485 465.065 264.167ZM656.072 249.857L719.726 312.127L709.119 322.503L645.466 260.233L656.072 249.857Z" fill="#063702"/>
<path fill-rule="evenodd" clip-rule="evenodd" d="M1245.17 264.167C1245.17 247.95 1231.75 234.815 1215.17 234.815C1190.31 234.815 1170.16 215.105 1170.16 190.787H1185.17C1185.17 207.004 1198.59 220.139 1215.17 220.139C1240.03 220.139 1260.18 239.849 1260.18 264.167C1260.18 280.383 1273.6 293.518 1290.18 293.518C1315.04 293.518 1335.19 313.228 1335.19 337.546C1335.19 353.763 1348.61 366.898 1365.19 366.898V381.574C1340.33 381.574 1320.19 361.864 1320.19 337.546C1320.19 321.329 1306.76 308.194 1290.18 308.194C1265.32 308.194 1245.17 288.485 1245.17 264.167ZM1436.18 249.857L1499.84 312.127L1489.23 322.503L1425.57 260.233L1436.18 249.857Z" fill="#063702"/>
<path fill-rule="evenodd" clip-rule="evenodd" d="M2025.28 264.167C2025.28 247.95 2011.86 234.815 1995.28 234.815C1970.42 234.815 1950.27 215.105 1950.27 190.787H1965.28C1965.28 207.004 1978.7 220.139 1995.28 220.139C2020.14 220.139 2040.29 239.849 2040.29 264.167C2040.29 280.383 2053.71 293.518 2070.29 293.518C2095.15 293.518 2115.3 313.228 2115.3 337.546C2115.3 353.763 2128.72 366.898 2145.3 366.898V381.574C2120.44 381.574 2100.29 361.864 2100.29 337.546C2100.29 321.329 2086.87 308.194 2070.29 308.194C2045.43 308.194 2025.28 288.485 2025.28 264.167ZM2216.29 249.857L2279.95 312.127L2269.34 322.503L2205.68 260.233L2216.29 249.857Z" fill="#063702"/>
<path fill-rule="evenodd" clip-rule="evenodd" d="M2415.34 264.167C2415.34 247.95 2401.91 234.815 2385.33 234.815C2360.48 234.815 2340.33 215.105 2340.33 190.787H2355.33C2355.33 207.004 2368.76 220.139 2385.33 220.139C2410.19 220.139 2430.34 239.849 2430.34 264.167C2430.34 280.383 2443.77 293.518 2460.35 293.518C2485.2 293.518 2505.35 313.228 2505.35 337.546C2505.35 353.763 2518.78 366.898 2535.36 366.898V381.574C2510.5 381.574 2490.35 361.864 2490.35 337.546C2490.35 321.329 2476.92 308.194 2460.35 308.194C2435.49 308.194 2415.34 288.485 2415.34 264.167ZM2606.35 249.857L2670 312.127L2659.39 322.503L2595.74 260.233L2606.35 249.857Z" fill="#063702"/>
<path fill-rule="evenodd" clip-rule="evenodd" d="M465.065 73.3796C465.065 57.1627 451.638 44.0278 435.061 44.0278C410.202 44.0278 390.055 24.318 390.055 0H405.057C405.057 16.2169 418.484 29.3518 435.061 29.3518C459.919 29.3518 480.067 49.0616 480.067 73.3796C480.067 89.5965 493.494 102.731 510.071 102.731C534.93 102.731 555.078 122.441 555.078 146.759C555.078 162.976 568.505 176.111 585.082 176.111V190.787C560.224 190.787 540.076 171.077 540.076 146.759C540.076 130.542 526.649 117.407 510.071 117.407C485.213 117.407 465.065 97.6976 465.065 73.3796ZM656.072 59.0706L719.726 121.34L709.119 131.716L645.466 69.4464L656.072 59.0706Z" fill="#063702"/>
<path fill-rule="evenodd" clip-rule="evenodd" d="M1245.17 73.3796C1245.17 57.1627 1231.75 44.0278 1215.17 44.0278C1190.31 44.0278 1170.16 24.318 1170.16 0H1185.17C1185.17 16.2169 1198.59 29.3518 1215.17 29.3518C1240.03 29.3518 1260.18 49.0616 1260.18 73.3796C1260.18 89.5965 1273.6 102.731 1290.18 102.731C1315.04 102.731 1335.19 122.441 1335.19 146.759C1335.19 162.976 1348.61 176.111 1365.19 176.111V190.787C1340.33 190.787 1320.19 171.077 1320.19 146.759C1320.19 130.542 1306.76 117.407 1290.18 117.407C1265.32 117.407 1245.17 97.6976 1245.17 73.3796ZM1436.18 59.0706L1499.84 121.34L1489.23 131.716L1425.57 69.4464L1436.18 59.0706Z" fill="#063702"/>
<path fill-rule="evenodd" clip-rule="evenodd" d="M2025.28 73.3796C2025.28 57.1627 2011.86 44.0278 1995.28 44.0278C1970.42 44.0278 1950.27 24.318 1950.27 0H1965.28C1965.28 16.2169 1978.7 29.3518 1995.28 29.3518C2020.14 29.3518 2040.29 49.0616 2040.29 73.3796C2040.29 89.5965 2053.71 102.731 2070.29 102.731C2095.15 102.731 2115.3 122.441 2115.3 146.759C2115.3 162.976 2128.72 176.111 2145.3 176.111V190.787C2120.44 190.787 2100.29 171.077 2100.29 146.759C2100.29 130.542 2086.87 117.407 2070.29 117.407C2045.43 117.407 2025.28 97.6976 2025.28 73.3796ZM2216.29 59.0706L2279.95 121.34L2269.34 131.716L2205.68 69.4464L2216.29 59.0706Z" fill="#063702"/>
<path fill-rule="evenodd" clip-rule="evenodd" d="M2415.34 73.3796C2415.34 57.1627 2401.91 44.0278 2385.33 44.0278C2360.48 44.0278 2340.33 24.318 2340.33 0H2355.33C2355.33 16.2169 2368.76 29.3518 2385.33 29.3518C2410.19 29.3518 2430.34 49.0616 2430.34 73.3796C2430.34 89.5965 2443.77 102.731 2460.35 102.731C2485.2 102.731 2505.35 122.441 2505.35 146.759C2505.35 162.976 2518.78 176.111 2535.36 176.111V190.787C2510.5 190.787 2490.35 171.077 2490.35 146.759C2490.35 130.542 2476.92 117.407 2460.35 117.407C2435.49 117.407 2415.34 97.6976 2415.34 73.3796ZM2606.35 59.0706L2670 121.34L2659.39 131.716L2595.74 69.4464L2606.35 59.0706Z" fill="#063702"/>
<path fill-rule="evenodd" clip-rule="evenodd" d="M75.0105 73.3796C75.0105 57.1627 61.5836 44.0278 45.0063 44.0278C20.1478 44.0278 0 24.318 0 0H15.0021C15.0021 16.2169 28.429 29.3518 45.0063 29.3518C69.8648 29.3518 90.0126 49.0616 90.0126 73.3796C90.0126 89.5965 103.44 102.731 120.017 102.731C144.875 102.731 165.023 122.441 165.023 146.759C165.023 162.976 178.45 176.111 195.027 176.111V190.787C170.169 190.787 150.021 171.077 150.021 146.759C150.021 130.542 136.594 117.407 120.017 117.407C95.1584 117.407 75.0105 97.6976 75.0105 73.3796ZM266.017 59.0706L329.671 121.34L319.065 131.716L255.411 69.4464L266.017 59.0706Z" fill="#063702"/>
<path fill-rule="evenodd" clip-rule="evenodd" d="M855.12 73.3796C855.12 57.1627 841.693 44.0278 825.116 44.0278C800.257 44.0278 780.109 24.318 780.109 0H795.112C795.112 16.2169 808.538 29.3518 825.116 29.3518C849.974 29.3518 870.122 49.0616 870.122 73.3796C870.122 89.5965 883.549 102.731 900.126 102.731C924.985 102.731 945.133 122.441 945.133 146.759C945.133 162.976 958.56 176.111 975.137 176.111V190.787C950.278 190.787 930.131 171.077 930.131 146.759C930.131 130.542 916.704 117.407 900.126 117.407C875.268 117.407 855.12 97.6976 855.12 73.3796ZM1046.13 59.0706L1109.78 121.34L1099.17 131.716L1035.52 69.4464L1046.13 59.0706Z" fill="#063702"/>
<path fill-rule="evenodd" clip-rule="evenodd" d="M1635.23 73.3796C1635.23 57.1627 1621.8 44.0278 1605.23 44.0278C1580.37 44.0278 1560.22 24.318 1560.22 0H1575.22C1575.22 16.2169 1588.65 29.3518 1605.23 29.3518C1630.08 29.3518 1650.23 49.0616 1650.23 73.3796C1650.23 89.5965 1663.66 102.731 1680.24 102.731C1705.09 102.731 1725.24 122.441 1725.24 146.759C1725.24 162.976 1738.67 176.111 1755.25 176.111V190.787C1730.39 190.787 1710.24 171.077 1710.24 146.759C1710.24 130.542 1696.81 117.407 1680.24 117.407C1655.38 117.407 1635.23 97.6976 1635.23 73.3796ZM1826.24 59.0706L1889.89 121.34L1879.28 131.716L1815.63 69.4464L1826.24 59.0706Z" fill="#063702"/>
</svg>
